<?xml version="1.0" encoding="utf-8"?>
<!-- Generator: Adobe Illustrator 24.1.0, SVG Export Plug-In . SVG Version: 6.00 Build 0)  -->
<svg version="1.1" id="Layer_1" xmlns="http://www.w3.org/2000/svg" xmlns:xlink="http://www.w3.org/1999/xlink" x="0px" y="0px"
	 viewBox="0 0 24 24" style="enable-background:new 0 0 24 24;" xml:space="preserve">
<style type="text/css">
	.st0{fill-rule:evenodd;clip-rule:evenodd;fill:#DEC9A7;}
</style>
<path class="st0" d="M16,12c0-1.7,1.3-3,3-3s3,1.3,3,3s-1.3,3-3,3S16,13.7,16,12z M17,12c0-1.1,0.9-2,2-2s2,0.9,2,2s-0.9,2-2,2
	S17,13.1,17,12z M9,12c0-1.7,1.3-3,3-3s3,1.3,3,3s-1.3,3-3,3S9,13.7,9,12z M10,12c0-1.1,0.9-2,2-2s2,0.9,2,2s-0.9,2-2,2
	S10,13.1,10,12z M2,12c0-1.7,1.3-3,3-3s3,1.3,3,3s-1.3,3-3,3S2,13.7,2,12z M3,12c0-1.1,0.9-2,2-2s2,0.9,2,2s-0.9,2-2,2S3,13.1,3,12z
	"/>
</svg>
